<svg width="117" height="57" viewBox="0 0 117 57" fill="none" xmlns="http://www.w3.org/2000/svg">
<path d="M1.93453 42.8146V17.0546H20.6545V22.0146H8.37453V27.4146H19.1745V32.4546H8.37453V42.8146H1.93453Z" fill="#373234"/>
<path d="M36.5759 42.3802C33.3819 43.236 30.6085 43.1371 28.2556 42.0835C25.8958 41.0041 24.288 38.8675 23.4322 35.6735C22.6523 32.7628 22.8296 30.2306 23.9642 28.0769C25.0988 25.9232 27.2631 24.4185 30.4571 23.5626C33.3677 22.7827 35.8217 22.9258 37.819 23.9918C39.8163 25.0579 41.1532 26.8531 41.8295 29.3773L42.7095 32.6615L29.7275 36.14C30.3352 37.2747 31.2198 37.9488 32.3812 38.1621C33.5616 38.3427 35.0532 38.1915 36.8563 37.7084C37.8609 37.4392 38.8542 37.0764 39.8362 36.6201C40.8439 36.1568 41.6576 35.6903 42.2771 35.2206L43.3642 39.2775C42.5988 39.9243 41.635 40.5 40.4727 41.0047C39.3173 41.5352 38.0183 41.9936 36.5759 42.3802ZM28.7647 32.5468L36.3375 30.5176L36.1201 29.7063C35.8786 28.8047 35.4183 28.1689 34.7393 27.7986C34.0535 27.4027 33.0666 27.3772 31.7787 27.7223C30.2847 28.1226 29.3244 28.7112 28.8976 29.4882C28.4639 30.2393 28.4196 31.2589 28.7647 32.5468Z" fill="#373234"/>
<path d="M57.0768 42.3802C53.8828 43.236 51.1094 43.1371 48.7565 42.0835C46.3968 41.0041 44.789 38.8675 43.9331 35.6735C43.1532 32.7628 43.3306 30.2306 44.4651 28.0769C45.5997 25.9232 47.764 24.4185 50.958 23.5626C53.8686 22.7827 56.3226 22.9258 58.3199 23.9918C60.3172 25.0579 61.6541 26.8531 62.3305 29.3773L63.2104 32.6615L50.2284 36.14C50.8361 37.2747 51.7207 37.9488 52.8822 38.1621C54.0625 38.3427 55.5542 38.1915 57.3572 37.7084C58.3618 37.4392 59.3551 37.0764 60.3371 36.6201C61.3448 36.1568 62.1585 35.6903 62.7781 35.2206L63.8651 39.2775C63.0997 39.9243 62.1359 40.5 60.9736 41.0047C59.8182 41.5352 58.5193 41.9936 57.0768 42.3802ZM49.2656 32.5468L56.8384 30.5176L56.621 29.7063C56.3795 28.8047 55.9192 28.1689 55.2403 27.7986C54.5544 27.4027 53.5675 27.3772 52.2796 27.7223C50.7857 28.1226 49.8253 28.7112 49.3985 29.4882C48.9648 30.2393 48.9205 31.2589 49.2656 32.5468Z" fill="#373234"/>
<path d="M73.0478 43.2146C71.2078 43.2146 69.6345 42.9213 68.3278 42.3346C67.0211 41.748 66.0211 40.788 65.3278 39.4546C64.6345 38.0946 64.2878 36.2813 64.2878 34.0146C64.2878 31.7213 64.6878 29.8013 65.4878 28.2546C66.2878 26.6813 67.3811 25.4946 68.7678 24.6946C70.1811 23.868 71.7945 23.4546 73.6078 23.4546C74.5945 23.4546 75.4745 23.5613 76.2478 23.7746C77.0478 23.988 77.7945 24.308 78.4878 24.7346V15.8546H84.9278V42.8146H79.3678L79.0078 41.2146C78.2345 41.8813 77.3678 42.388 76.4078 42.7346C75.4478 43.0546 74.3278 43.2146 73.0478 43.2146ZM74.8878 38.5346C76.3011 38.5346 77.5011 38.0546 78.4878 37.0946V29.4146C77.5811 28.588 76.4211 28.1746 75.0078 28.1746C73.6478 28.1746 72.6078 28.6946 71.8878 29.7346C71.1945 30.748 70.8478 32.188 70.8478 34.0546C70.8478 35.868 71.1811 37.068 71.8478 37.6546C72.5411 38.2413 73.5545 38.5346 74.8878 38.5346Z" fill="#373234"/>
<path d="M90.6481 20.8546V16.0146H97.6481V20.8546H90.6481ZM91.1681 42.8146V28.6146H88.3681L88.9281 23.8546H97.6081V42.8146H91.1681Z" fill="#373234"/>
<path d="M108.86 43.2146C106.513 43.2146 104.78 42.6146 103.66 41.4146C102.566 40.2146 102.02 38.5613 102.02 36.4546V28.7346H99.4595V23.8546H102.02V19.8946L108.46 18.1746V23.8546H113.06L112.78 28.7346H108.46V36.0146C108.46 36.9213 108.686 37.5613 109.14 37.9346C109.593 38.2813 110.273 38.4546 111.18 38.4546C111.953 38.4546 112.74 38.3213 113.54 38.0546V42.4146C112.286 42.948 110.726 43.2146 108.86 43.2146Z" fill="#373234"/>
</svg>
